solid OpenSCAD_Model
  facet normal -1 0 0
    outer loop
      vertex 0 0 0
      vertex 0 0 5
      vertex 0 62 0
    endloop
  endfacet
  facet normal -1 0 0
    outer loop
      vertex 0 62 0
      vertex 0 0 5
      vertex 0 62 5
    endloop
  endfacet
  facet normal 0 -1 0
    outer loop
      vertex 0 0 5
      vertex 0 0 0
      vertex 127 0 0
    endloop
  endfacet
  facet normal 0 -1 0
    outer loop
      vertex 127 0 5
      vertex 0 0 5
      vertex 127 0 0
    endloop
  endfacet
  facet normal 0 0 -1
    outer loop
      vertex 122 5 0
      vertex 127 0 0
      vertex 5 5 0
    endloop
  endfacet
  facet normal 0 0 -1
    outer loop
      vertex 122 57 0
      vertex 0 62 0
      vertex 127 62 0
    endloop
  endfacet
  facet normal 0 0 -1
    outer loop
      vertex 0 0 0
      vertex 0 62 0
      vertex 5 57 0
    endloop
  endfacet
  facet normal 0 0 -1
    outer loop
      vertex 0 0 0
      vertex 5 57 0
      vertex 5 5 0
    endloop
  endfacet
  facet normal 0 0 -1
    outer loop
      vertex 0 0 0
      vertex 5 5 0
      vertex 127 0 0
    endloop
  endfacet
  facet normal 0 0 -1
    outer loop
      vertex 127 0 0
      vertex 122 5 0
      vertex 127 62 0
    endloop
  endfacet
  facet normal 0 0 -1
    outer loop
      vertex 122 5 0
      vertex 122 57 0
      vertex 127 62 0
    endloop
  endfacet
  facet normal 0 0 -1
    outer loop
      vertex 5 57 0
      vertex 0 62 0
      vertex 122 57 0
    endloop
  endfacet
  facet normal 0 1 0
    outer loop
      vertex 0 62 0
      vertex 0 62 5
      vertex 127 62 0
    endloop
  endfacet
  facet normal 0 1 0
    outer loop
      vertex 127 62 0
      vertex 0 62 5
      vertex 127 62 5
    endloop
  endfacet
  facet normal 0 0 1
    outer loop
      vertex 3 3 5
      vertex 0 0 5
      vertex 127 0 5
    endloop
  endfacet
  facet normal 0 0 1
    outer loop
      vertex 0 62 5
      vertex 0 0 5
      vertex 3 3 5
    endloop
  endfacet
  facet normal 0 0 1
    outer loop
      vertex 3 59 5
      vertex 124 59 5
      vertex 0 62 5
    endloop
  endfacet
  facet normal 0 0 1
    outer loop
      vertex 0 62 5
      vertex 3 3 5
      vertex 3 59 5
    endloop
  endfacet
  facet normal 0 0 1
    outer loop
      vertex 127 62 5
      vertex 124 59 5
      vertex 127 0 5
    endloop
  endfacet
  facet normal 0 0 1
    outer loop
      vertex 127 62 5
      vertex 0 62 5
      vertex 124 59 5
    endloop
  endfacet
  facet normal 0 0 1
    outer loop
      vertex 124 59 5
      vertex 124 3 5
      vertex 127 0 5
    endloop
  endfacet
  facet normal 0 0 1
    outer loop
      vertex 124 3 5
      vertex 3 3 5
      vertex 127 0 5
    endloop
  endfacet
  facet normal 1 0 0
    outer loop
      vertex 127 0 5
      vertex 127 0 0
      vertex 127 62 0
    endloop
  endfacet
  facet normal 1 0 0
    outer loop
      vertex 127 62 5
      vertex 127 0 5
      vertex 127 62 0
    endloop
  endfacet
  facet normal 1 0 0
    outer loop
      vertex 5 57 0
      vertex 5 57 3
      vertex 5 5 3
    endloop
  endfacet
  facet normal 1 0 0
    outer loop
      vertex 5 5 0
      vertex 5 57 0
      vertex 5 5 3
    endloop
  endfacet
  facet normal 0 -1 0
    outer loop
      vertex 122 57 0
      vertex 122 57 3
      vertex 5 57 3
    endloop
  endfacet
  facet normal 0 -1 0
    outer loop
      vertex 5 57 0
      vertex 122 57 0
      vertex 5 57 3
    endloop
  endfacet
  facet normal -1 0 0
    outer loop
      vertex 122 57 3
      vertex 122 57 0
      vertex 122 5 3
    endloop
  endfacet
  facet normal -1 0 0
    outer loop
      vertex 122 5 3
      vertex 122 57 0
      vertex 122 5 0
    endloop
  endfacet
  facet normal 0 1 0
    outer loop
      vertex 122 5 3
      vertex 122 5 0
      vertex 5 5 3
    endloop
  endfacet
  facet normal 0 1 0
    outer loop
      vertex 5 5 3
      vertex 122 5 0
      vertex 5 5 0
    endloop
  endfacet
  facet normal 1 0 0
    outer loop
      vertex 3 59 3
      vertex 3 59 5
      vertex 3 3 5
    endloop
  endfacet
  facet normal 1 0 0
    outer loop
      vertex 3 3 3
      vertex 3 59 3
      vertex 3 3 5
    endloop
  endfacet
  facet normal 0 1 0
    outer loop
      vertex 124 3 5
      vertex 124 3 3
      vertex 3 3 5
    endloop
  endfacet
  facet normal 0 1 0
    outer loop
      vertex 3 3 5
      vertex 124 3 3
      vertex 3 3 3
    endloop
  endfacet
  facet normal -1 0 0
    outer loop
      vertex 124 59 5
      vertex 124 59 3
      vertex 124 3 5
    endloop
  endfacet
  facet normal -1 0 0
    outer loop
      vertex 124 3 5
      vertex 124 59 3
      vertex 124 3 3
    endloop
  endfacet
  facet normal 0 -1 0
    outer loop
      vertex 124 59 3
      vertex 124 59 5
      vertex 3 59 5
    endloop
  endfacet
  facet normal 0 -1 0
    outer loop
      vertex 3 59 3
      vertex 124 59 3
      vertex 3 59 5
    endloop
  endfacet
  facet normal 0 0 1
    outer loop
      vertex 122 57 3
      vertex 124 59 3
      vertex 3 59 3
    endloop
  endfacet
  facet normal 0 0 1
    outer loop
      vertex 3 3 3
      vertex 5 57 3
      vertex 3 59 3
    endloop
  endfacet
  facet normal 0 0 1
    outer loop
      vertex 124 3 3
      vertex 124 59 3
      vertex 122 57 3
    endloop
  endfacet
  facet normal 0 0 1
    outer loop
      vertex 122 5 3
      vertex 5 5 3
      vertex 124 3 3
    endloop
  endfacet
  facet normal 0 0 1
    outer loop
      vertex 124 3 3
      vertex 122 57 3
      vertex 122 5 3
    endloop
  endfacet
  facet normal 0 0 1
    outer loop
      vertex 3 3 3
      vertex 5 5 3
      vertex 5 57 3
    endloop
  endfacet
  facet normal 0 0 1
    outer loop
      vertex 3 3 3
      vertex 124 3 3
      vertex 5 5 3
    endloop
  endfacet
  facet normal 0 0 1
    outer loop
      vertex 5 57 3
      vertex 122 57 3
      vertex 3 59 3
    endloop
  endfacet
endsolid OpenSCAD_Model
